# xmcd
#
# Track frame offsets: 
#        150
#        11637
#        24887
#        36642
#        49765
#        62370
#        74347
#        90037
#        105220
#        118540
#        132442
#        149567
#        162212
#        179487
#        192935
#        206950
#        222072
#        234650
#        246857
#        268655
#
# Disc length: 3758 seconds
#
# Revision: 0
# Processed by: cddbd v1.5.2PL0 Copyright (c) Steve Scherf et al.
# Submitted via: ExactAudioCopy v0.99pb4
#
DISCID=1c0eac14
DTITLE=Cristy Lane - Best Country Classics Vol.2
DYEAR=1900
DGENRE=Country
TTITLE0=Let Me Down Easy
TTITLE1=I Fall to Pieces
TTITLE2=Penny Arcade
TTITLE3=Sweet Dreams
TTITLE4=Send Me A Pillow
TTITLE5=I Can't Help It
TTITLE6=End of The World
TTITLE7=The Way We Were
TTITLE8=Yesterday
TTITLE9=Everything I Own
TTITLE10=Midnight Blue
TTITLE11=I Will
TTITLE12=He's Back In Town
TTITLE13=Love Lies
TTITLE14=Here's to Us
TTITLE15=When The Hurting Ends
TTITLE16=Once or Twice
TTITLE17=Secret Love
TTITLE18=Those Were The Days
TTITLE19=I've Really Got The Blues
EXTD=
EXTT0=
EXTT1=
EXTT2=
EXTT3=
EXTT4=
EXTT5=
EXTT6=
EXTT7=
EXTT8=
EXTT9=
EXTT10=
EXTT11=
EXTT12=
EXTT13=
EXTT14=
EXTT15=
EXTT16=
EXTT17=
EXTT18=
EXTT19=
PLAYORDER=
